<svg width="249" height="170" viewBox="0 0 249 170" fill="none" xmlns="http://www.w3.org/2000/svg">
<g filter="url(#filter0_bddi_4281_2)">
<rect x="33" width="183" height="120" rx="16" fill="#2FB5FC"/>
<g clip-path="url(#clip0_4281_2)">
<g filter="url(#filter1_ii_4281_2)">
<path fill-rule="evenodd" clip-rule="evenodd" d="M193.842 34.0925C200.47 34.5265 206.109 29.5105 206.438 22.8888C206.767 16.2672 201.66 10.5475 195.033 10.1135C188.405 9.67947 182.766 14.6955 182.437 21.3172C182.108 27.9388 187.214 33.6585 193.842 34.0925Z" fill="url(#paint0_linear_4281_2)"/>
</g>
<path fill-rule="evenodd" clip-rule="evenodd" d="M193.842 34.0925C200.47 34.5265 206.109 29.5105 206.438 22.8888C206.767 16.2672 201.66 10.5475 195.033 10.1135C188.405 9.67947 182.766 14.6955 182.437 21.3172C182.108 27.9388 187.214 33.6585 193.842 34.0925Z" stroke="black" stroke-opacity="0.3" stroke-width="0.27304"/>
<g filter="url(#filter2_d_4281_2)">
<path d="M197.054 26.7687C195.518 27.545 193.461 27.5004 191.44 26.4682C189.804 25.6377 188.479 24.2847 187.662 22.7845C188.071 23.1729 188.554 23.4941 189.075 23.7812C191.158 24.934 193.293 25.0042 194.84 24.1613C194.839 24.1603 194.839 24.1596 194.838 24.1586C192.786 22.3603 191.079 20.0781 189.815 18.2231C189.545 17.916 189.35 17.5414 189.152 17.203C190.713 18.8244 193.215 20.9053 194.113 21.5069C192.261 19.2874 190.647 16.5775 190.714 16.6541C193.651 20.0296 196.443 22.0212 196.443 22.0212C196.536 22.0819 196.607 22.1321 196.664 22.1765C196.735 22.0198 196.798 21.8564 196.852 21.6863C197.442 19.8801 196.977 17.7514 195.817 15.9393C198.611 17.8947 200.154 21.3235 199.304 24.0533C199.282 24.127 199.258 24.1996 199.233 24.2708C199.241 24.2814 199.248 24.2923 199.256 24.3035C200.589 26.1995 200.103 28.0847 199.943 27.7126C199.248 26.1312 197.796 26.5058 197.054 26.7688L197.054 26.7687Z" fill="#3913B8"/>
</g>
</g>
<g clip-path="url(#clip1_4281_2)">
<g clip-path="url(#clip2_4281_2)">
<path d="M47.0564 21.0911C48.6883 21.0911 49.6946 20.2706 49.6946 18.9742L49.6946 18.9697C49.6946 17.9498 49.0917 17.3968 47.7092 17.1112L47.0156 16.9707C46.245 16.812 45.9277 16.5582 45.9277 16.1321L45.9277 16.1275C45.9277 15.638 46.3765 15.3298 47.0519 15.3252C47.7409 15.3252 48.1942 15.6516 48.2712 16.1185L48.2803 16.1729H49.5676L49.5631 16.1139C49.477 15.0215 48.5795 14.2147 47.0519 14.2147C45.6014 14.2147 44.5588 15.017 44.5588 16.2318L44.5588 16.2363C44.5588 17.229 45.1435 17.8636 46.5034 18.1401L47.1924 18.2807C48.0038 18.4484 48.3256 18.6886 48.3256 19.1193L48.3256 19.1238C48.3256 19.6269 47.8225 19.976 47.0927 19.976C46.3266 19.976 45.7963 19.6451 45.7464 19.1555L45.7419 19.1102H44.4228L44.4273 19.1827C44.5044 20.3431 45.4926 21.0911 47.0564 21.0911ZM52.165 20.9233H53.4569L54.6807 16.5174H54.7533L55.9907 20.9233H57.2735L59.0096 14.3824H57.5954L56.5845 19.0558H56.512L55.2972 14.3824H54.1413L52.9492 19.0558H52.8766L51.8567 14.3824H50.4334L52.165 20.9233ZM60.2018 20.9233H61.5707L61.5707 14.3824H60.2018L60.2018 20.9233ZM63.1572 20.9233H64.5262L64.5262 18.3487H67.187L67.187 17.2653H64.5262L64.5262 15.5111H67.4408L67.4408 14.3824H63.1572L63.1572 20.9233ZM70.292 20.9233H71.6609L71.6609 15.5111H73.6237L73.6237 14.3824H68.3292L68.3292 15.5111H70.292L70.292 20.9233ZM77.5718 21.0911C79.258 21.0911 80.3097 20.1165 80.3097 18.666L80.3097 14.3824H78.9407L78.9407 18.5436C78.9407 19.3912 78.4512 19.9306 77.5718 19.9306C76.6924 19.9306 76.1983 19.3912 76.1983 18.5436L76.1983 14.3824H74.8294L74.8294 18.666C74.8294 20.121 75.8946 21.0911 77.5718 21.0911ZM81.8962 20.9233H83.2651L83.2651 14.3824H81.8962L81.8962 20.9233Z" fill="white"/>
<path d="M46.6037 33.3349C47.7198 33.3349 48.5344 32.6971 48.68 31.737L48.68 31.7162H47.9105L47.9035 31.73C47.7614 32.295 47.2657 32.6486 46.6037 32.6486C45.7024 32.6486 45.1409 31.9034 45.1409 30.7179L45.1409 30.7109C45.1409 29.522 45.7024 28.7767 46.6002 28.7767C47.2588 28.7767 47.7614 29.1754 47.907 29.7889L47.907 29.7993H48.6765L48.68 29.782C48.5483 28.7871 47.7025 28.0904 46.6002 28.0904C45.2102 28.0904 44.3471 29.0956 44.3471 30.7109L44.3471 30.7179C44.3471 32.3297 45.2137 33.3349 46.6037 33.3349ZM51.1965 33.2864C52.1602 33.2864 52.6801 32.7318 52.8049 32.2361L52.8118 32.2049L52.0874 32.2084L52.0735 32.2361C51.9834 32.4302 51.6957 32.6694 51.2139 32.6694C50.5934 32.6694 50.1982 32.25 50.1844 31.529H52.8534L52.8534 31.2655C52.8534 30.1355 52.2087 29.3764 51.1584 29.3764C50.1081 29.3764 49.4287 30.1633 49.4287 31.3383L49.4287 31.3418C49.4287 32.5342 50.0943 33.2864 51.1965 33.2864ZM51.1619 29.9934C51.6714 29.9934 52.0493 30.3192 52.1082 30.9917H50.1948C50.2606 30.3435 50.6489 29.9934 51.1619 29.9934ZM53.7478 33.2136H54.4999L54.4999 30.964C54.4999 30.4198 54.8916 30.0662 55.4671 30.0662C55.6092 30.0662 55.7374 30.0835 55.8726 30.1113L55.8726 29.418C55.7964 29.4007 55.6646 29.3833 55.5433 29.3833C55.0407 29.3833 54.6906 29.619 54.5554 30.0177H54.4999L54.4999 29.4492H53.7478L53.7478 33.2136ZM58.2054 33.2379C58.351 33.2379 58.4897 33.2206 58.611 33.1998L58.611 32.6001C58.507 32.6105 58.4412 32.6139 58.3268 32.6139C57.9559 32.6139 57.8034 32.4476 57.8034 32.042L57.8034 30.0419H58.611L58.611 29.4492H57.8034L57.8034 28.4994H57.0373L57.0373 29.4492H56.448L56.448 30.0419H57.0373L57.0373 32.2223C57.0373 32.9467 57.377 33.2379 58.2054 33.2379ZM59.8797 28.7767C60.1362 28.7767 60.3511 28.5653 60.3511 28.3088C60.3511 28.0488 60.1362 27.8374 59.8797 27.8374C59.6197 27.8374 59.4083 28.0488 59.4083 28.3088C59.4083 28.5653 59.6197 28.7767 59.8797 28.7767ZM59.5019 33.2136H60.2506L60.2506 29.4492H59.5019L59.5019 33.2136ZM61.6128 33.2136H62.3616L62.3616 30.0419H63.19L63.19 29.4492H62.3546L62.3546 29.0887C62.3546 28.7074 62.5176 28.5064 62.9335 28.5064C63.0514 28.5064 63.1519 28.5133 63.2212 28.5237L63.2212 27.9725C63.093 27.9517 62.9474 27.9379 62.7775 27.9379C61.9941 27.9379 61.6128 28.3053 61.6128 29.054L61.6128 29.4492H60.9924L60.9924 30.0419H61.6128L61.6128 33.2136ZM64.4275 28.7767C64.684 28.7767 64.8989 28.5653 64.8989 28.3088C64.8989 28.0488 64.684 27.8374 64.4275 27.8374C64.1675 27.8374 63.9561 28.0488 63.9561 28.3088C63.9561 28.5653 64.1675 28.7767 64.4275 28.7767ZM64.0497 33.2136H64.7984L64.7984 29.4492H64.0497L64.0497 33.2136ZM67.4779 33.2864C68.4103 33.2864 68.9476 32.7838 69.0828 32.0524L69.0897 32.0212H68.3687L68.3618 32.0385C68.2405 32.4441 67.9493 32.659 67.4779 32.659C66.8574 32.659 66.4726 32.1529 66.4726 31.321L66.4726 31.3141C66.4726 30.503 66.8505 30.0038 67.4779 30.0038C67.977 30.0038 68.2821 30.2811 68.3652 30.652L68.3687 30.6624L69.0897 30.6589L69.0897 30.6416C68.9857 29.9102 68.4207 29.3764 67.4744 29.3764C66.3756 29.3764 65.7066 30.1217 65.7066 31.3141L65.7066 31.321C65.7066 32.5377 66.379 33.2864 67.4779 33.2864ZM70.9754 33.276C71.4745 33.276 71.8697 33.0611 72.0915 32.6798H72.1505L72.1505 33.2136H72.8957L72.8957 30.6381C72.8957 29.8478 72.3619 29.3764 71.4156 29.3764C70.5594 29.3764 69.9667 29.7889 69.8766 30.4059L69.8731 30.4302H70.5976L70.601 30.4163C70.6911 30.1494 70.965 29.9969 71.3809 29.9969C71.8905 29.9969 72.1505 30.2257 72.1505 30.6381L72.1505 30.9709L71.1314 31.0298C70.2336 31.0853 69.7275 31.477 69.7275 32.1495L69.7275 32.1564C69.7275 32.8393 70.2579 33.276 70.9754 33.276ZM70.4762 32.1252L70.4762 32.1183C70.4762 31.7786 70.7119 31.5914 71.2319 31.5602L72.1505 31.5013L72.1505 31.8236C72.1505 32.3089 71.738 32.6763 71.1764 32.6763C70.7709 32.6763 70.4762 32.4718 70.4762 32.1252ZM75.3776 33.2379C75.5232 33.2379 75.6619 33.2206 75.7832 33.1998L75.7832 32.6001C75.6792 32.6105 75.6133 32.6139 75.4989 32.6139C75.128 32.6139 74.9755 32.4476 74.9755 32.042L74.9755 30.0419H75.7832L75.7832 29.4492H74.9755L74.9755 28.4994H74.2095L74.2095 29.4492H73.6202L73.6202 30.0419H74.2095L74.2095 32.2223C74.2095 32.9467 74.5492 33.2379 75.3776 33.2379ZM78.1992 33.2864C79.1628 33.2864 79.6828 32.7318 79.8076 32.2361L79.8145 32.2049L79.09 32.2084L79.0762 32.2361C78.9861 32.4302 78.6984 32.6694 78.2165 32.6694C77.5961 32.6694 77.2009 32.25 77.187 31.529H79.8561L79.8561 31.2655C79.8561 30.1355 79.2114 29.3764 78.1611 29.3764C77.1108 29.3764 76.4314 30.1633 76.4314 31.3383L76.4314 31.3418C76.4314 32.5342 77.0969 33.2864 78.1992 33.2864ZM78.1645 29.9934C78.6741 29.9934 79.0519 30.3192 79.1108 30.9917H77.1974C77.2633 30.3435 77.6515 29.9934 78.1645 29.9934Z" fill="white" fill-opacity="0.6"/>
</g>
<g clip-path="url(#clip3_4281_2)">
<rect x="43.9242" y="64.4392" width="58.9765" height="2.18432" rx="1.09216" fill="white" fill-opacity="0.2"/>
<rect x="43.9242" y="70.9922" width="31.6726" height="2.18432" rx="1.09216" fill="white" fill-opacity="0.2"/>
<rect x="43.9242" y="77.5452" width="42.5942" height="2.18432" rx="1.09216" fill="white" fill-opacity="0.2"/>
<g clip-path="url(#clip4_4281_2)">
<rect x="43.9242" y="84.0981" width="31.6726" height="2.18432" rx="1.09216" fill="white" fill-opacity="0.2"/>
<rect x="43.9242" y="99.3884" width="45.3246" height="4.36863" rx="2.18432" fill="white" fill-opacity="0.4"/>
</g>
</g>
</g>
</g>
<defs>
<filter id="filter0_bddi_4281_2" x="0.235245" y="-21.8432" width="248.53" height="190.99" filterUnits="userSpaceOnUse" color-interpolation-filters="sRGB">
<feFlood flood-opacity="0" result="BackgroundImageFix"/>
<feGaussianBlur in="BackgroundImageFix" stdDeviation="10.9216"/>
<feComposite in2="SourceAlpha" operator="in" result="effect1_backgroundBlur_4281_2"/>
<feColorMatrix in="SourceAlpha" type="matrix" values="0 0 0 0 0 0 0 0 0 0 0 0 0 0 0 0 0 0 127 0" result="hardAlpha"/>
<feOffset dy="16.3824"/>
<feGaussianBlur stdDeviation="16.3824"/>
<feColorMatrix type="matrix" values="0 0 0 0 0 0 0 0 0 0 0 0 0 0 0 0 0 0 0.15 0"/>
<feBlend mode="normal" in2="effect1_backgroundBlur_4281_2" result="effect2_dropShadow_4281_2"/>
<feColorMatrix in="SourceAlpha" type="matrix" values="0 0 0 0 0 0 0 0 0 0 0 0 0 0 0 0 0 0 127 0" result="hardAlpha"/>
<feOffset dy="8.19119"/>
<feGaussianBlur stdDeviation="8.19119"/>
<feColorMatrix type="matrix" values="0 0 0 0 0 0 0 0 0 0 0 0 0 0 0 0 0 0 0.1 0"/>
<feBlend mode="normal" in2="effect2_dropShadow_4281_2" result="effect3_dropShadow_4281_2"/>
<feBlend mode="normal" in="SourceGraphic" in2="effect3_dropShadow_4281_2" result="shape"/>
<feColorMatrix in="SourceAlpha" type="matrix" values="0 0 0 0 0 0 0 0 0 0 0 0 0 0 0 0 0 0 127 0" result="hardAlpha"/>
<feMorphology radius="0.5" operator="erode" in="SourceAlpha" result="effect4_innerShadow_4281_2"/>
<feOffset/>
<feComposite in2="hardAlpha" operator="arithmetic" k2="-1" k3="1"/>
<feColorMatrix type="matrix" values="0 0 0 0 1 0 0 0 0 1 0 0 0 0 1 0 0 0 0.2 0"/>
<feBlend mode="normal" in2="shape" result="effect4_innerShadow_4281_2"/>
</filter>
<filter id="filter1_ii_4281_2" x="182.285" y="9.95068" width="24.3042" height="24.3044" filterUnits="userSpaceOnUse" color-interpolation-filters="sRGB">
<feFlood flood-opacity="0" result="BackgroundImageFix"/>
<feBlend mode="normal" in="SourceGraphic" in2="BackgroundImageFix" result="shape"/>
<feColorMatrix in="SourceAlpha" type="matrix" values="0 0 0 0 0 0 0 0 0 0 0 0 0 0 0 0 0 0 127 0" result="hardAlpha"/>
<feOffset dx="-0.546079" dy="-0.546079"/>
<feComposite in2="hardAlpha" operator="arithmetic" k2="-1" k3="1"/>
<feColorMatrix type="matrix" values="0 0 0 0 1 0 0 0 0 1 0 0 0 0 1 0 0 0 0.25 0"/>
<feBlend mode="normal" in2="shape" result="effect1_innerShadow_4281_2"/>
<feColorMatrix in="SourceAlpha" type="matrix" values="0 0 0 0 0 0 0 0 0 0 0 0 0 0 0 0 0 0 127 0" result="hardAlpha"/>
<feOffset dx="0.546079" dy="0.546079"/>
<feComposite in2="hardAlpha" operator="arithmetic" k2="-1" k3="1"/>
<feColorMatrix type="matrix" values="0 0 0 0 1 0 0 0 0 1 0 0 0 0 1 0 0 0 0.25 0"/>
<feBlend mode="normal" in2="effect1_innerShadow_4281_2" result="effect2_innerShadow_4281_2"/>
</filter>
<filter id="filter2_d_4281_2" x="160.723" y="-10.9992" width="66.378" height="65.6979" filterUnits="userSpaceOnUse" color-interpolation-filters="sRGB">
<feFlood flood-opacity="0" result="BackgroundImageFix"/>
<feColorMatrix in="SourceAlpha" type="matrix" values="0 0 0 0 0 0 0 0 0 0 0 0 0 0 0 0 0 0 127 0" result="hardAlpha"/>
<feOffset/>
<feGaussianBlur stdDeviation="13.4693"/>
<feColorMatrix type="matrix" values="0 0 0 0 0.250017 0 0 0 0 0.215353 0 0 0 0 0.847968 0 0 0 0.610768 0"/>
<feBlend mode="normal" in2="BackgroundImageFix" result="effect1_dropShadow_4281_2"/>
<feBlend mode="normal" in="SourceGraphic" in2="effect1_dropShadow_4281_2" result="shape"/>
</filter>
<linearGradient id="paint0_linear_4281_2" x1="195.033" y1="10.1135" x2="193.464" y2="34.0678" gradientUnits="userSpaceOnUse">
<stop stop-color="#2FB8FF"/>
<stop offset="1" stop-color="#9EECD9"/>
</linearGradient>
<clipPath id="clip0_4281_2">
<rect width="24.0275" height="24.0275" fill="white" transform="matrix(0.998898 0.0654114 -0.0495533 0.997985 183.032 9.32764)"/>
</clipPath>
<clipPath id="clip1_4281_2">
<rect width="58.9766" height="92.8335" fill="white" transform="translate(43.9242 10.9233)"/>
</clipPath>
<clipPath id="clip2_4281_2">
<rect width="40.4099" height="24.5736" fill="white" transform="translate(43.9242 10.9233)"/>
</clipPath>
<clipPath id="clip3_4281_2">
<rect width="58.9765" height="39.3177" fill="white" transform="translate(43.9242 64.4392)"/>
</clipPath>
<clipPath id="clip4_4281_2">
<rect width="45.3246" height="19.6588" fill="white" transform="translate(43.9242 84.0981)"/>
</clipPath>
</defs>
</svg>
