<svg width="3538" height="671" viewBox="0 0 3538 671" fill="none" xmlns="http://www.w3.org/2000/svg">
<path opacity="0.111111" d="M307.622 633.153C474.126 612.319 658.417 588.736 1010.38 562.923C1362.35 537.109 1484.69 526.931 1694.05 497.101C1903.41 467.27 1967.95 462.419 2424.62 446.39C2882.13 430.332 3525.58 339.671 3525.58 339.671" stroke="url(#paint0_linear_4460_37147)" stroke-width="1.11111"/>
<path opacity="0.222222" d="M267.687 600.986C435.369 579.119 620.931 554.15 976.502 534.666C1332.07 515.183 1455.59 506.641 1666.22 473.817C1876.84 440.992 1942.03 437.246 2404.44 437.585C2867.71 437.924 3515.1 338.537 3515.1 338.537" stroke="url(#paint1_linear_4460_37147)" stroke-width="1.22222"/>
<path opacity="0.333333" d="M228.15 568.273C397.116 545.395 584.082 519.062 943.018 505.979C1301.95 492.897 1426.6 486.015 1638.71 450.217C1850.81 414.418 1916.62 411.791 2384.02 428.616C2852.29 445.473 3504.28 337.423 3504.28 337.423" stroke="url(#paint2_linear_4460_37147)" stroke-width="1.33333"/>
<path opacity="0.444444" d="M189.036 535.017C359.394 511.15 547.894 483.477 909.95 476.864C1272.01 470.25 1397.73 465.051 1611.55 426.303C1825.37 387.555 1891.74 386.059 2363.37 419.478C2835.86 452.959 3493.12 336.324 3493.12 336.324" stroke="url(#paint3_linear_4460_37147)" stroke-width="1.44444"/>
<path opacity="0.555556" d="M150.365 501.22C322.219 476.388 512.384 447.402 877.313 447.322C1242.24 447.243 1368.98 443.748 1584.74 402.079C1800.5 360.41 1867.4 360.056 2342.48 410.165C2818.43 460.366 3481.64 335.233 3481.64 335.233" stroke="url(#paint4_linear_4460_37147)" stroke-width="1.55556"/>
<path opacity="0.666667" d="M112.159 466.882C285.615 441.114 477.574 410.844 845.127 417.359C1212.68 423.873 1340.38 422.103 1558.31 377.546C1776.23 332.99 1843.62 333.789 2321.37 400.671C2800 467.675 3469.82 334.147 3469.82 334.147" stroke="url(#paint5_linear_4460_37147)" stroke-width="1.66667"/>
<path opacity="0.777778" d="M74.4361 432.007C249.597 405.33 443.478 373.81 813.402 386.976C1183.33 400.142 1311.93 400.117 1532.25 352.709C1752.56 305.301 1820.39 307.265 2300.04 390.991C2780.57 474.869 3457.67 333.058 3457.67 333.058" stroke="url(#paint6_linear_4460_37147)" stroke-width="1.77778"/>
<path opacity="0.888889" d="M37.2241 396.597C214.192 369.043 410.123 336.305 782.164 356.177C1154.21 376.048 1283.66 377.788 1506.59 327.57C1729.51 277.352 1797.75 280.49 2278.51 381.118C2760.15 481.93 3445.18 331.962 3445.18 331.962" stroke="url(#paint7_linear_4460_37147)" stroke-width="1.88889"/>
<path d="M0.539398 83.6555C179.416 55.2557 346.158 -20.0179 720.059 6.60947C1093.96 33.2368 1216.2 129.732 1490.9 106.694C1765.61 83.6555 1785.25 58.0328 2266.34 175.61C2748.32 293.401 3432.36 53.8522 3432.36 53.8522" stroke="url(#paint8_linear_4460_37147)"/>
<defs>
<linearGradient id="paint0_linear_4460_37147" x1="3522.79" y1="327.039" x2="3525.49" y2="357.312" gradientUnits="userSpaceOnUse">
<stop stop-color="#FF7373"/>
<stop offset="1" stop-color="#491EB8"/>
</linearGradient>
<linearGradient id="paint1_linear_4460_37147" x1="3511.49" y1="319.86" x2="3514.97" y2="364.498" gradientUnits="userSpaceOnUse">
<stop stop-color="#FF7373"/>
<stop offset="1" stop-color="#491EB8"/>
</linearGradient>
<linearGradient id="paint2_linear_4460_37147" x1="3500.18" y1="312.682" x2="3504.12" y2="371.675" gradientUnits="userSpaceOnUse">
<stop stop-color="#FF7373"/>
<stop offset="1" stop-color="#491EB8"/>
</linearGradient>
<linearGradient id="paint3_linear_4460_37147" x1="3488.88" y1="305.503" x2="3492.95" y2="378.846" gradientUnits="userSpaceOnUse">
<stop stop-color="#FF7373"/>
<stop offset="1" stop-color="#491EB8"/>
</linearGradient>
<linearGradient id="paint4_linear_4460_37147" x1="3477.57" y1="298.324" x2="3481.47" y2="386.012" gradientUnits="userSpaceOnUse">
<stop stop-color="#FF7373"/>
<stop offset="1" stop-color="#491EB8"/>
</linearGradient>
<linearGradient id="paint5_linear_4460_37147" x1="3466.27" y1="291.146" x2="3469.67" y2="393.177" gradientUnits="userSpaceOnUse">
<stop stop-color="#FF7373"/>
<stop offset="1" stop-color="#491EB8"/>
</linearGradient>
<linearGradient id="paint6_linear_4460_37147" x1="3454.97" y1="283.967" x2="3457.55" y2="400.342" gradientUnits="userSpaceOnUse">
<stop stop-color="#FF7373"/>
<stop offset="1" stop-color="#491EB8"/>
</linearGradient>
<linearGradient id="paint7_linear_4460_37147" x1="3443.66" y1="276.788" x2="3445.11" y2="407.511" gradientUnits="userSpaceOnUse">
<stop stop-color="#FF7373"/>
<stop offset="1" stop-color="#491EB8"/>
</linearGradient>
<linearGradient id="paint8_linear_4460_37147" x1="3432.36" y1="1" x2="3432.36" y2="208.184" gradientUnits="userSpaceOnUse">
<stop stop-color="#FF7373"/>
<stop offset="1" stop-color="#491EB8"/>
</linearGradient>
</defs>
</svg>
