<svg width="1440" height="1147" viewBox="0 0 1440 1147" fill="none" xmlns="http://www.w3.org/2000/svg">
<path d="M-793.953 266.537C-379.435 -29.4633 -32.3291 -11.756 198.864 11.7444C430.058 35.2447 798.885 202.401 1278.28 166.901C1757.68 131.401 2715 525.537 2715 525.537L-793.953 525.537L-793.953 266.537Z" fill="url(#paint0_linear_4419_28867)"/>
<path d="M1500.2 290.9C1171.11 209.007 904.817 222.744 630.323 243.843C355.829 264.941 169.308 203.128 -86.4554 184.582C-342.219 166.036 -424.937 224.062 -547.295 243.843C-547.295 331.775 -535.696 745.711 -535.696 745.711L1818.15 745.711L1818.15 262.303C1818.15 262.303 1829.89 372.943 1500.2 290.9Z" fill="url(#paint1_linear_4419_28867)"/>
<path d="M1371.23 332.448C1042.14 250.555 856.078 343.567 512.794 362.546C169.51 381.526 233.703 350.994 -22.0607 332.448C-277.824 313.902 -413.336 337.526 -535.695 357.307C-535.695 445.239 -535.695 815.857 -535.695 815.857L1818.15 815.857L1818.15 332.448C1818.15 332.448 1700.91 414.491 1371.23 332.448Z" fill="url(#paint2_linear_4419_28867)"/>
<path d="M1169.96 397.258C840.878 315.365 836.11 282.035 572.441 303.639C308.773 325.244 150.089 213.186 -105.675 194.64C-361.438 176.094 -560.248 196.464 -682.607 216.244C-682.607 303.416 -682.607 648.986 -682.607 648.986L1839.82 648.986L1839.82 399.035C1839.82 399.035 1499.65 479.301 1169.96 397.258Z" fill="url(#paint3_linear_4419_28867)"/>
<path d="M1007.81 603.381C678.728 521.488 668.369 609.902 415.526 623.881C162.682 637.86 -44.7146 485.236 -300.478 466.69C-556.242 448.144 -626.744 530.858 -749.103 550.639C-749.103 638.572 -545.746 922.842 -545.746 922.842L1808.1 922.842L1808.1 617.471C1808.1 617.471 1337.5 685.424 1007.81 603.381Z" fill="url(#paint4_linear_4419_28867)"/>
<path d="M1360.24 833.147C1031.16 751.254 1015.42 766.167 672.138 785.147C328.854 804.127 222.722 851.693 -33.0411 833.147C-288.805 814.601 -424.317 838.225 -546.676 858.005C-546.676 945.938 -546.676 1146.56 -546.676 1146.56L1807.17 1146.56L1807.17 833.147C1807.17 833.147 1689.93 915.19 1360.24 833.147Z" fill="url(#paint5_linear_4419_28867)"/>
<defs>
<linearGradient id="paint0_linear_4419_28867" x1="960.524" y1="89.4001" x2="960.524" y2="525.537" gradientUnits="userSpaceOnUse">
<stop stop-color="#176AB1"/>
<stop offset="1" stop-color="#CBD8F1"/>
</linearGradient>
<linearGradient id="paint1_linear_4419_28867" x1="641.226" y1="199.4" x2="641.226" y2="367" gradientUnits="userSpaceOnUse">
<stop stop-color="#B8CAEF" stop-opacity="0"/>
<stop offset="1" stop-color="#E5EEF4"/>
</linearGradient>
<linearGradient id="paint2_linear_4419_28867" x1="1098.9" y1="234" x2="1091.73" y2="375.303" gradientUnits="userSpaceOnUse">
<stop stop-color="#FF8A25"/>
<stop offset="1" stop-color="#FFBE54"/>
</linearGradient>
<linearGradient id="paint3_linear_4419_28867" x1="1060.24" y1="251" x2="972.68" y2="688.016" gradientUnits="userSpaceOnUse">
<stop stop-color="#FF5449"/>
<stop offset="0.584158" stop-color="#FF8957"/>
<stop offset="1" stop-color="#FF5151"/>
</linearGradient>
<linearGradient id="paint4_linear_4419_28867" x1="870.18" y1="441.033" x2="826.654" y2="927.785" gradientUnits="userSpaceOnUse">
<stop stop-color="#FF2020"/>
<stop offset="0.491467" stop-color="#EF325F"/>
<stop offset="1" stop-color="#59248A"/>
</linearGradient>
<linearGradient id="paint5_linear_4419_28867" x1="630.246" y1="770.244" x2="630.246" y2="1146.56" gradientUnits="userSpaceOnUse">
<stop stop-color="#BCC6F6"/>
<stop offset="1" stop-color="#F2F6FF"/>
</linearGradient>
</defs>
</svg>
