<svg width="200" height="200" viewBox="0 0 200 200" fill="none" xmlns="http://www.w3.org/2000/svg">
<circle cx="100" cy="100" r="100" fill="#3C3C3C"/>
<path d="M52.5848 134.565L47.7891 131.796L101.215 39.2634L106.01 42.0322L52.5848 134.565Z" fill="#E535AB"/>
<path d="M46.6875 124.404H153.538V129.942H46.6875V124.404Z" fill="#E535AB"/>
<path d="M102.25 158.373L48.8047 127.515L51.5735 122.719L105.019 153.577L102.25 158.373ZM148.678 77.9496L95.2326 47.0919L98.0015 42.2961L151.447 73.1538L148.678 77.9496Z" fill="#E535AB"/>
<path d="M51.5892 77.9282L48.8203 73.1328L102.266 42.2751L105.035 47.0705L51.5892 77.9282Z" fill="#E535AB"/>
<path d="M147.691 134.566L94.266 42.0333L99.0618 39.2644L152.487 131.797L147.691 134.566ZM50.9258 69.4606H56.4635V131.176H50.9258V69.4606Z" fill="#E535AB"/>
<path d="M143.801 69.4605H149.338V131.176H143.801V69.4605Z" fill="#E535AB"/>
<path d="M101.305 156.029L98.8867 151.839L145.37 125.002L147.789 129.191L101.305 156.029Z" fill="#E535AB"/>
<path d="M156.677 132.977C153.475 138.548 146.336 140.45 140.765 137.247C135.194 134.045 133.292 126.906 136.495 121.335C139.697 115.764 146.836 113.862 152.407 117.065C158.012 120.301 159.913 127.406 156.677 132.977ZM63.7372 79.3016C60.5346 84.8727 53.3957 86.7742 47.8246 83.5716C42.2536 80.3691 40.3521 73.2302 43.5546 67.6591C46.7571 62.088 53.8961 60.1865 59.4671 63.3891C65.0382 66.6249 66.9397 73.7306 63.7372 79.3016ZM43.5879 132.977C40.3854 127.406 42.2869 120.301 47.858 117.065C53.429 113.862 60.5346 115.764 63.7705 121.335C66.9731 126.906 65.0716 134.011 59.5005 137.247C53.8961 140.45 46.7905 138.548 43.5879 132.977ZM136.528 79.3016C133.325 73.7306 135.227 66.6249 140.798 63.3891C146.369 60.1865 153.475 62.088 156.711 67.6591C159.913 73.2302 158.012 80.3358 152.44 83.5716C146.869 86.7742 139.73 84.8727 136.528 79.3016ZM100.133 165.636C93.6941 165.636 88.49 160.432 88.49 153.994C88.49 147.555 93.6941 142.351 100.133 142.351C106.571 142.351 111.775 147.555 111.775 153.994C111.775 160.399 106.571 165.636 100.133 165.636ZM100.133 58.285C93.6941 58.285 88.49 53.0809 88.49 46.6425C88.49 40.2041 93.6941 35 100.133 35C106.571 35 111.775 40.2041 111.775 46.6425C111.775 53.0809 106.571 58.285 100.133 58.285Z" fill="#E535AB"/>
</svg>
