<svg width="200" height="200" viewBox="0 0 200 200" fill="none" xmlns="http://www.w3.org/2000/svg">
<circle cx="100" cy="100" r="100" fill="#FCF9FF"/>
<path d="M129.483 65.0002C129.34 65.0003 129.199 65.0377 129.075 65.1087C128.951 65.1811 128.849 65.2844 128.777 65.4085C128.706 65.5325 128.668 65.6731 128.667 65.8164V86.6342C128.667 86.8385 128.572 87.0215 128.395 87.124C128.308 87.1746 128.21 87.2012 128.109 87.2012C128.009 87.2012 127.91 87.1746 127.823 87.124L124.422 85.1649C124.174 85.0213 123.892 84.9457 123.605 84.9457C123.319 84.9457 123.037 85.0213 122.789 85.1649L109.21 93.0019C108.702 93.295 108.394 93.8582 108.394 94.4444V110.119C108.394 110.704 108.703 111.241 109.21 111.534L122.789 119.371C123.037 119.515 123.319 119.591 123.605 119.591C123.892 119.591 124.174 119.515 124.422 119.371L138.001 111.534C138.249 111.391 138.456 111.185 138.599 110.936C138.743 110.688 138.818 110.406 138.817 110.119V71.0414C138.817 70.7479 138.739 70.4597 138.591 70.2062C138.442 69.9528 138.23 69.7432 137.974 69.5989L129.892 65.0815C129.765 65.0108 129.624 64.9983 129.483 65.0002ZM42.1302 84.5661C41.8715 84.5764 41.628 84.6217 41.3957 84.7564L27.8162 92.5938C27.5675 92.7367 27.3609 92.9429 27.2176 93.1914C27.0742 93.4399 26.9992 93.7218 27 94.0087L27.0272 115.045C27.0272 115.337 27.1781 115.609 27.4353 115.752C27.5586 115.826 27.6998 115.865 27.8436 115.865C27.9875 115.865 28.1286 115.826 28.2519 115.752L36.3068 111.126C36.817 110.823 37.1502 110.296 37.1502 109.711V99.887C37.1502 99.3007 37.4585 98.7629 37.9668 98.4717L41.3954 96.4853C41.6432 96.3412 41.9252 96.2659 42.2119 96.2674C42.4918 96.2674 42.7793 96.3374 43.0281 96.4853L46.457 98.4717C46.706 98.6145 46.9127 98.8206 47.0562 99.0692C47.1996 99.3178 47.2746 99.6 47.2736 99.887V109.71C47.2736 110.295 47.6102 110.826 48.117 111.126L56.1719 115.752C56.2952 115.826 56.4364 115.865 56.5802 115.865C56.7241 115.865 56.8652 115.826 56.9885 115.752C57.1126 115.68 57.2157 115.577 57.2874 115.453C57.3591 115.329 57.3969 115.188 57.397 115.044L57.4235 94.0087C57.4251 93.7217 57.3503 93.4394 57.2069 93.1908C57.0635 92.9421 56.8565 92.7361 56.6073 92.5938L43.0281 84.7564C42.7985 84.6217 42.5542 84.5767 42.2936 84.5661H42.1302ZM164.152 84.7564C163.869 84.7564 163.591 84.8282 163.336 84.9742L149.757 92.8117C149.508 92.9547 149.302 93.1609 149.158 93.4093C149.015 93.6578 148.94 93.9397 148.94 94.2266V109.901C148.94 110.491 149.273 111.025 149.784 111.316L163.254 118.99C163.752 119.274 164.359 119.296 164.86 119.017L173.024 114.473C173.283 114.329 173.458 114.06 173.459 113.765C173.461 113.622 173.423 113.48 173.352 113.356C173.28 113.231 173.176 113.128 173.051 113.058L159.39 105.22C159.135 105.074 158.955 104.779 158.955 104.485V99.5874C158.955 99.2943 159.136 99.0258 159.39 98.8798L163.635 96.4305C163.759 96.3586 163.9 96.3208 164.044 96.3208C164.187 96.3208 164.328 96.3586 164.452 96.4305L168.697 98.8798C168.821 98.9512 168.924 99.0543 168.996 99.1785C169.068 99.3027 169.105 99.4436 169.105 99.5871V103.451C169.105 103.595 169.142 103.736 169.214 103.86C169.286 103.984 169.389 104.087 169.513 104.159C169.768 104.306 170.076 104.306 170.329 104.159L178.466 99.4244C178.715 99.2808 178.921 99.0744 179.064 98.826C179.207 98.5776 179.283 98.2959 179.283 98.0091V94.227C179.283 93.6426 178.973 93.1052 178.466 92.8117L164.969 84.9742C164.721 84.8307 164.439 84.7553 164.152 84.7564ZM123.551 96.4581C123.622 96.4581 123.705 96.4755 123.769 96.5121L128.422 99.2062C128.548 99.2792 128.64 99.4142 128.64 99.5598V104.948C128.64 105.094 128.549 105.229 128.422 105.302L123.769 107.996C123.706 108.031 123.636 108.05 123.564 108.05C123.493 108.05 123.423 108.031 123.36 107.996L118.707 105.302C118.581 105.229 118.489 105.094 118.489 104.948V99.5598C118.489 99.4138 118.581 99.2799 118.707 99.2062L123.36 96.5125C123.418 96.4769 123.484 96.4582 123.551 96.4584L123.551 96.4581Z" fill="#404137"/>
<path d="M82.9229 84.6746C82.64 84.6746 82.3601 84.7465 82.1067 84.8925L68.5275 92.7027C68.0196 92.995 67.7109 93.5593 67.7109 94.1448V109.819C67.7109 110.406 68.0199 110.941 68.5275 111.235L82.1067 119.072C82.3546 119.216 82.6363 119.292 82.923 119.292C83.2098 119.292 83.4915 119.216 83.7394 119.072L97.3186 111.235C97.5672 111.091 97.7736 110.885 97.9169 110.637C98.0602 110.388 98.1354 110.106 98.1348 109.819V94.1448C98.1348 93.5586 97.8261 92.995 97.3186 92.7027L83.7394 84.8925C83.4912 84.7491 83.2095 84.674 82.9229 84.6746ZM164.126 98.6623C164.072 98.6623 164.012 98.6623 163.963 98.6895L161.35 100.213C161.302 100.24 161.261 100.28 161.232 100.328C161.204 100.375 161.188 100.43 161.187 100.486V103.479C161.187 103.592 161.252 103.695 161.35 103.751L163.963 105.248C164.061 105.305 164.165 105.305 164.262 105.248L166.874 103.751C166.923 103.724 166.963 103.684 166.992 103.637C167.021 103.589 167.036 103.534 167.038 103.479V100.485C167.036 100.43 167.021 100.375 166.992 100.328C166.963 100.28 166.923 100.241 166.874 100.213L164.262 98.6891C164.214 98.6607 164.18 98.6623 164.126 98.6623Z" fill="#83CD29"/>
</svg>
