<svg width="200" height="200" viewBox="0 0 200 200" fill="none" xmlns="http://www.w3.org/2000/svg">
<circle cx="100" cy="100" r="100" fill="#FCF9FF"/>
<path d="M145.843 107.422C141.422 107.447 137.594 108.508 134.383 110.089C133.198 107.743 132.013 105.693 131.815 104.162C131.593 102.384 131.321 101.297 131.593 99.1733C131.864 97.0491 133.099 94.0361 133.099 93.7891C133.074 93.5669 132.827 92.4802 130.284 92.4555C127.74 92.4308 125.542 92.9494 125.295 93.6163C125.048 94.2831 124.554 95.8143 124.233 97.3949C123.789 99.7164 119.146 107.94 116.503 112.262C115.639 110.583 114.898 109.101 114.749 107.915C114.527 106.138 114.255 105.051 114.527 102.927C114.799 100.803 116.034 97.79 116.034 97.5431C116.009 97.3208 115.762 96.2341 113.219 96.2094C110.675 96.1847 108.477 96.7034 108.23 97.3702C107.983 98.037 107.711 99.6176 107.168 101.149C106.649 102.68 100.475 116.411 98.8694 119.992C98.0544 121.82 97.3385 123.277 96.8196 124.265C96.301 125.253 96.7949 124.339 96.7455 124.438C96.301 125.278 96.054 125.747 96.054 125.747V125.772C95.7082 126.389 95.3378 126.982 95.1647 126.982C95.0412 126.982 94.7942 125.327 95.214 123.055C96.1278 118.288 98.3505 110.855 98.3261 110.583C98.3261 110.46 98.7457 109.151 96.8934 108.484C95.0906 107.817 94.4487 108.929 94.3003 108.929C94.1521 108.929 94.0286 109.324 94.0286 109.324C94.0286 109.324 96.029 100.952 90.2006 100.952C86.5455 100.952 81.5073 104.928 79.0129 108.558C77.4323 109.423 74.0736 111.25 70.5172 113.201C69.1589 113.942 67.7512 114.733 66.4175 115.449L66.1461 115.152C59.0828 107.619 46.0182 102.285 46.5615 92.1591C46.7591 88.4793 48.0434 78.7735 71.6538 67.0178C90.9914 57.386 106.476 60.0286 109.168 65.9064C112.996 74.3033 100.895 89.9117 80.7916 92.1591C73.1356 93.0235 69.1097 90.0599 68.0974 88.9486C67.0355 87.7878 66.8873 87.7384 66.4921 87.9607C65.85 88.3064 66.2452 89.3437 66.4921 89.9611C67.0849 91.517 69.5545 94.2831 73.753 95.6661C77.4326 96.8762 86.4225 97.5431 97.2891 93.3446C109.465 88.6275 118.973 75.5382 116.182 64.5975C113.342 53.4592 94.8688 49.8041 77.4081 56.003C67.0105 59.7075 55.7488 65.4866 47.6482 73.0685C38.0164 82.0581 36.4852 89.9117 37.1274 93.1717C39.375 104.804 55.403 112.386 61.8242 117.992C61.5031 118.165 61.2068 118.338 60.9351 118.486C57.7245 120.066 45.4996 126.463 42.4372 133.23C38.9796 140.886 42.9805 146.393 45.6478 147.134C53.8965 149.431 62.3428 145.307 66.9117 138.515C71.4557 131.723 70.9126 122.907 68.8134 118.881L68.739 118.733L71.2581 117.251C72.8884 116.288 74.4937 115.399 75.9011 114.633C75.1111 116.782 74.5428 119.325 74.2467 123.03C73.9009 127.377 75.6791 133.007 78.0253 135.23C79.0626 136.193 80.2974 136.218 81.063 136.218C83.7797 136.218 85.0145 133.97 86.3728 131.279C88.0522 127.994 89.534 124.191 89.534 124.191C89.534 124.191 87.6818 134.489 92.7446 134.489C94.5969 134.489 96.4491 132.094 97.2888 130.859V130.884C97.2888 130.884 97.3382 130.809 97.437 130.637C97.5406 130.483 97.6395 130.327 97.7334 130.168V130.118C98.4743 128.834 100.129 125.895 102.599 121.03C105.784 114.757 108.847 106.903 108.847 106.903C108.847 106.903 109.143 108.83 110.057 111.991C110.6 113.868 111.786 115.917 112.699 117.918C111.958 118.955 111.514 119.548 111.514 119.548L111.539 119.573C110.946 120.363 110.279 121.203 109.588 122.043C107.069 125.056 104.056 128.489 103.661 129.477C103.191 130.637 103.29 131.501 104.204 132.193C104.871 132.687 106.056 132.786 107.316 132.687C109.588 132.539 111.168 131.971 111.959 131.625C113.194 131.18 114.601 130.514 115.96 129.526C118.429 127.698 119.936 125.105 119.788 121.648C119.714 119.746 119.096 117.869 118.331 116.091C118.553 115.77 118.775 115.448 118.997 115.103C122.899 109.398 125.912 103.125 125.912 103.125C125.912 103.125 126.209 105.051 127.123 108.213C127.592 109.818 128.53 111.572 129.37 113.3C125.715 116.289 123.418 119.746 122.628 122.018C121.171 126.217 122.307 128.118 124.455 128.563C125.418 128.761 126.802 128.316 127.839 127.872C129.123 127.452 130.679 126.735 132.111 125.673C134.581 123.846 136.952 121.302 136.828 117.869C136.754 116.289 136.335 114.733 135.766 113.251C138.878 111.967 142.904 111.226 148.016 111.843C159.006 113.127 161.18 119.993 160.76 122.858C160.34 125.723 158.043 127.303 157.277 127.797C156.512 128.267 156.265 128.44 156.339 128.785C156.438 129.304 156.783 129.279 157.45 129.181C158.364 129.032 163.229 126.834 163.427 121.55C163.723 114.757 157.277 107.348 145.843 107.422ZM61.0833 135.996C57.4528 139.972 52.3406 141.479 50.1673 140.194C47.8211 138.836 48.7346 132.983 53.205 128.76C55.9216 126.191 59.4533 123.82 61.7748 122.363C62.2934 122.042 63.0837 121.573 64.0222 121.005C64.1704 120.907 64.2692 120.857 64.2692 120.857C64.442 120.758 64.6396 120.635 64.8372 120.511C66.4919 126.537 64.9113 131.822 61.0833 135.996ZM87.6324 117.943C86.3728 121.03 83.7056 128.957 82.1003 128.513C80.717 128.142 79.8776 122.141 81.8284 116.214C82.8162 113.225 84.9155 109.669 86.1503 108.286C88.151 106.063 90.3241 105.322 90.8677 106.236C91.5098 107.422 88.4227 116.016 87.6324 117.943ZM109.538 128.414C108.995 128.686 108.501 128.883 108.279 128.735C108.106 128.637 108.501 128.266 108.501 128.266C108.501 128.266 111.242 125.327 112.329 123.969C112.946 123.179 113.687 122.265 114.478 121.228V121.524C114.478 125.08 111.07 127.451 109.538 128.414ZM126.431 124.561C126.036 124.265 126.085 123.351 127.419 120.486C127.938 119.35 129.123 117.449 131.173 115.646C131.42 116.387 131.568 117.103 131.543 117.77C131.519 122.215 128.357 123.87 126.431 124.561Z" fill="#CF649A"/>
</svg>
